<svg width="12" height="12" viewBox="0 0 12 12" fill="none" xmlns="http://www.w3.org/2000/svg">
<path d="M7.54357 9.41064C7.54357 10.2867 6.85395 10.9986 6.00518 10.9986C5.15642 10.9986 4.4668 10.2867 4.4668 9.41064" fill="white"/>
<path d="M7.54357 9.41064C7.54357 10.2867 6.85395 10.9986 6.00518 10.9986C5.15642 10.9986 4.4668 10.2867 4.4668 9.41064" stroke="white" stroke-width="0.75" stroke-miterlimit="10"/>
<path d="M4.9126 2.12808V1.70098C4.9126 1.07676 5.40064 0.572998 5.99477 0.572998C6.58891 0.572998 7.07695 1.07676 7.07695 1.69003V2.11713" fill="white"/>
<path d="M4.9126 2.12808V1.70098C4.9126 1.07676 5.40064 0.572998 5.99477 0.572998C6.58891 0.572998 7.07695 1.07676 7.07695 1.69003V2.11713" stroke="white" stroke-miterlimit="10"/>
<path d="M2.50391 5.55581V7.37372L6.00506 9.94154L9.50622 7.37372V5.55581C9.50622 3.56268 7.936 1.94189 6.00506 1.94189C4.07412 1.94189 2.50391 3.56268 2.50391 5.55581Z" fill="white" stroke="white" stroke-width="0.75" stroke-miterlimit="10"/>
<path d="M9.49578 7.32996C9.49578 8.52364 10.4294 9.48736 11.5859 9.48736H5.99463" fill="white"/>
<path d="M9.49578 7.32996C9.49578 8.52364 10.4294 9.48736 11.5859 9.48736H5.99463" stroke="white" stroke-width="0.75" stroke-miterlimit="10"/>
<path d="M2.50415 7.32996C2.50415 8.52364 1.5705 9.48736 0.414062 9.48736H5.99469" fill="white"/>
<path d="M2.50415 7.32996C2.50415 8.52364 1.5705 9.48736 0.414062 9.48736H5.99469" stroke="white" stroke-width="0.75" stroke-miterlimit="10"/>
</svg>
